HIERARCHY
ROOT joint_Root
{
	OFFSET 0.0 0.0 0.0
	CHANNELS 6 Xposition Yposition Zposition Zrotation Xrotation Yrotation 
	JOINT Hips
	{
		OFFSET -0.726466 93.3139 -2.00062
		CHANNELS 6 Xposition Yposition Zposition Zrotation Xrotation Yrotation 
		JOINT Spine
		{
			OFFSET 15.7357 0.0 0.0
			CHANNELS 6 Xposition Yposition Zposition Zrotation Xrotation Yrotation 
			JOINT Chest
			{
				OFFSET 8.98455 -0.406207 0.0
				CHANNELS 6 Xposition Yposition Zposition Zrotation Xrotation Yrotation 
				JOINT Neck
				{
					OFFSET 16.3773 0.0 0.0
					CHANNELS 6 Xposition Yposition Zposition Zrotation Xrotation Yrotation 
					JOINT Head
					{
						OFFSET 6.45672 0.0 0.0
						CHANNELS 6 Xposition Yposition Zposition Zrotation Xrotation Yrotation 
						End Site
						{
							OFFSET 0.0 0.0 0.0
						}
					}
				}
				JOINT Shoulder_L
				{
					OFFSET 12.9942 -0.242716 4.98039
					CHANNELS 6 Xposition Yposition Zposition Zrotation Xrotation Yrotation 
					JOINT UpperArm_L
					{
						OFFSET 5.34809 0.0 0.0
						CHANNELS 6 Xposition Yposition Zposition Zrotation Xrotation Yrotation 
						JOINT LowerArm_L
						{
							OFFSET 24.3286 1.87007e-05 0.0
							CHANNELS 6 Xposition Yposition Zposition Zrotation Xrotation Yrotation 
							JOINT Hand_L
							{
								OFFSET 22.2916 0.0 0.0
								CHANNELS 6 Xposition Yposition Zposition Zrotation Xrotation Yrotation 
								End Site
								{
									OFFSET 0.0 0.0 0.0
								}
							}
						}
					}
				}
				JOINT Shoulder_R
				{
					OFFSET 12.9945 -0.242716 -4.98039
					CHANNELS 6 Xposition Yposition Zposition Zrotation Xrotation Yrotation 
					JOINT UpperArm_R
					{
						OFFSET -5.34813 0.0 0.0
						CHANNELS 6 Xposition Yposition Zposition Zrotation Xrotation Yrotation 
						JOINT LowerArm_R
						{
							OFFSET -24.3289 0.000322201 0.0
							CHANNELS 6 Xposition Yposition Zposition Zrotation Xrotation Yrotation 
							JOINT Hand_R
							{
								OFFSET -22.2915 -0.000108084 0.0
								CHANNELS 6 Xposition Yposition Zposition Zrotation Xrotation Yrotation 
								End Site
								{
									OFFSET 0.0 0.0 0.0
								}
							}
						}
					}
				}
			}
		}
		JOINT UpperLeg_L
		{
			OFFSET -2.19248 -6.46944 0.0
			CHANNELS 6 Xposition Yposition Zposition Zrotation Xrotation Yrotation 
			JOINT LowerLeg_L
			{
				OFFSET 39.0811 0.0 -1.23785e-05
				CHANNELS 6 Xposition Yposition Zposition Zrotation Xrotation Yrotation 
				JOINT Foot_L
				{
					OFFSET 40.9854 0.0 -1.26872e-05
					CHANNELS 6 Xposition Yposition Zposition Zrotation Xrotation Yrotation 
					JOINT Toes_L
					{
						OFFSET 11.7543 0.0 0.0
						CHANNELS 6 Xposition Yposition Zposition Zrotation Xrotation Yrotation 
						End Site
						{
							OFFSET 0.0 0.0 0.0
						}
					}
				}
			}
		}
		JOINT UpperLeg_R
		{
			OFFSET -2.19251 6.46944 0.0
			CHANNELS 6 Xposition Yposition Zposition Zrotation Xrotation Yrotation 
			JOINT LowerLeg_R
			{
				OFFSET -39.0811 -0.00228153 -0.0401928
				CHANNELS 6 Xposition Yposition Zposition Zrotation Xrotation Yrotation 
				JOINT Foot_R
				{
					OFFSET -40.9854 0.0 0.0
					CHANNELS 6 Xposition Yposition Zposition Zrotation Xrotation Yrotation 
					JOINT Toes_R
					{
						OFFSET -11.7543 0.0 0.0
						CHANNELS 6 Xposition Yposition Zposition Zrotation Xrotation Yrotation 
						End Site
						{
							OFFSET 0.0 0.0 0.0
						}
					}
				}
			}
		}
	}
}
MOTION
Frames:	8
Frame Time:	0.0333333
0.000000 0.000000 0.000000 0.000000 0.000000 -0.000000 -2.732520 92.255500 0.127046 88.232500 -0.159046 2.182310 15.735700 0.000005 -0.000001 68.979700 85.221500 -64.342400 8.984550 -0.406207 -0.000000 1.324200 -3.686620 9.312140 16.377300 -0.000001 -0.000001 2.773740 -0.850121 -1.466910 6.456720 -0.000001 -0.000000 0.672802 -0.382277 7.422830 12.994200 -0.242716 4.980390 -83.999000 -11.675100 -62.549000 5.348090 -0.000007 -0.000001 -77.907700 -60.630600 -88.625100 24.328600 0.000019 0.000005 -0.447406 -0.996404 -24.161600 22.291600 -0.000001 0.000005 22.931200 5.439070 -4.254100 12.994500 -0.242716 -4.980390 90.937700 -2.292090 -67.743700 -5.348130 -0.000001 -0.000004 -56.802600 69.495500 7.920870 -24.328900 0.000322 -0.000009 22.071600 1.443040 -86.446900 -22.291500 -0.000108 -0.000004 28.315500 5.647890 -27.425000 -2.192480 -6.469440 -0.000000 -169.252000 -17.736800 -4.200390 39.081100 -0.000007 -0.000012 -0.142717 0.397841 19.734500 40.985400 -0.000006 -0.000013 -7.441140 -1.928130 -61.018700 11.754300 -0.000000 0.000003 -0.000150 -0.001451 -16.632700 -2.192510 6.469440 -0.000001 175.580000 20.181700 177.772000 -39.081100 -0.002282 -0.040193 -0.070059 0.212970 19.012200 -40.985400 0.000008 0.000006 -4.080420 0.842611 -62.974200 -11.754300 -0.000006 -0.000006 -0.000846 -0.013196 -17.109900
0.000000 0.000000 0.000000 0.000000 0.000000 -0.000000 -2.685010 92.255900 0.140851 88.272100 -0.136033 2.289000 15.735700 0.000005 -0.000001 68.478500 85.239300 -63.922400 8.984550 -0.406207 -0.000000 1.260120 -3.749530 9.148610 16.377300 -0.000001 -0.000001 2.845410 -0.528997 -1.850240 6.456720 -0.000001 -0.000000 0.673756 -0.039166 7.286840 12.994200 -0.242716 4.980390 -83.928100 -11.742000 -62.403600 5.348090 -0.000007 -0.000001 -76.047600 -59.869400 -92.510800 24.328600 0.000019 0.000005 -1.383940 -2.623230 -27.815300 22.291600 -0.000001 0.000005 22.323700 5.460480 -5.020030 12.994500 -0.242716 -4.980390 90.942500 -2.320500 -67.887200 -5.348130 -0.000001 -0.000004 -56.998700 69.563700 8.094210 -24.328900 0.000322 -0.000009 21.921200 1.496890 -86.286800 -22.291500 -0.000108 -0.000004 28.362300 5.647280 -27.480800 -2.192480 -6.469440 -0.000000 -169.303000 -17.650400 -4.092820 39.081100 -0.000007 -0.000012 -0.141918 0.395394 19.744600 40.985400 -0.000006 -0.000013 -7.415670 -1.978350 -61.049900 11.754300 -0.000000 0.000003 -0.000140 -0.001372 -16.629800 -2.192510 6.469440 -0.000001 175.419000 20.465600 177.922000 -39.081100 -0.002282 -0.040193 -0.070658 0.214809 19.004000 -40.985400 0.000008 0.000006 -4.078990 1.099700 -62.952100 -11.754300 -0.000006 -0.000006 -0.000921 -0.014286 -17.154200
0.000000 0.000000 0.000000 0.000000 0.000000 -0.000000 -2.597600 92.260700 0.165143 88.331900 -0.225526 2.356750 15.735700 0.000005 -0.000001 68.235000 85.278100 -63.774500 8.984550 -0.406207 -0.000000 1.169470 -3.756560 8.954780 16.377300 -0.000001 -0.000001 2.889240 -0.279527 -2.215280 6.456720 -0.000001 -0.000000 0.685697 0.226023 7.246270 12.994200 -0.242716 4.980390 -83.816600 -11.847800 -62.179900 5.348090 -0.000007 -0.000001 -72.815700 -59.326100 -95.511000 24.328600 0.000019 0.000005 -2.316760 -3.668920 -32.294300 22.291600 -0.000001 0.000005 21.597800 5.486490 -6.001470 12.994500 -0.242716 -4.980390 90.931200 -2.301660 -67.965300 -5.348130 -0.000001 -0.000004 -57.456000 69.544600 8.516610 -24.328900 0.000322 -0.000009 21.770000 1.547160 -86.133200 -22.291500 -0.000108 -0.000004 28.404800 5.647660 -27.445600 -2.192480 -6.469440 -0.000000 -169.393000 -17.671000 -3.952360 39.081100 -0.000007 -0.000012 -0.139586 0.389521 19.715400 40.985400 -0.000006 -0.000013 -7.370690 -2.005600 -61.100200 11.754300 -0.000000 0.000003 -0.000133 -0.001309 -16.627500 -2.192510 6.469440 -0.000001 175.237000 20.599100 178.030000 -39.081100 -0.002282 -0.040193 -0.071195 0.216914 18.959700 -40.985400 0.000008 0.000006 -4.106490 1.339080 -62.898500 -11.754300 -0.000006 -0.000006 -0.000962 -0.014865 -17.177700
0.000000 0.000000 0.000000 0.000000 0.000000 -0.000000 -2.501170 92.264700 0.183721 88.400500 -0.321756 2.360290 15.735700 0.000005 -0.000001 67.639300 85.321400 -63.279600 8.984550 -0.406207 -0.000000 1.050510 -3.813400 8.750000 16.377300 -0.000001 -0.000001 2.924570 -0.086315 -2.542630 6.456720 -0.000001 -0.000000 0.674031 0.413519 7.362640 12.994200 -0.242716 4.980390 -83.719100 -11.919400 -61.946600 5.348090 -0.000007 -0.000001 -68.397200 -59.318600 -97.568000 24.328600 0.000019 0.000005 -2.903230 -3.764210 -37.688400 22.291600 -0.000001 0.000005 20.738300 5.510230 -6.954450 12.994500 -0.242716 -4.980390 90.908900 -2.255540 -68.045800 -5.348130 -0.000001 -0.000004 -57.679800 69.465000 8.716950 -24.328900 0.000322 -0.000009 21.583100 1.581240 -86.010600 -22.291500 -0.000108 -0.000004 28.266700 5.647360 -27.472900 -2.192480 -6.469440 -0.000000 -169.507000 -17.878900 -3.908460 39.081100 -0.000007 -0.000012 -0.138501 0.386600 19.710400 40.985400 -0.000006 -0.000013 -7.293940 -1.927860 -61.120400 11.754300 -0.000000 0.000003 -0.000134 -0.001317 -16.627800 -2.192510 6.469440 -0.000001 175.085000 20.713000 178.038000 -39.081100 -0.002282 -0.040193 -0.070347 0.214567 18.949800 -40.985400 0.000008 0.000006 -4.137870 1.509600 -62.853100 -11.754300 -0.000006 -0.000006 -0.000982 -0.015149 -17.189200
0.000000 0.000000 0.000000 0.000000 0.000000 -0.000000 -2.410310 92.260900 0.206299 88.458100 -0.298313 2.468570 15.735700 0.000005 -0.000001 66.881700 85.311800 -62.613400 8.984550 -0.406207 -0.000000 1.021280 -3.930820 8.567550 16.377300 -0.000001 -0.000001 2.888810 -0.014493 -2.797340 6.456720 -0.000001 -0.000000 0.705496 0.491518 7.509240 12.994200 -0.242716 4.980390 -83.676900 -11.941800 -61.829800 5.348090 -0.000007 -0.000001 -63.573200 -59.792500 -99.016100 24.328600 0.000019 0.000005 -2.919960 -3.017350 -44.103800 22.291600 -0.000001 0.000005 20.519600 5.536380 -8.077670 12.994500 -0.242716 -4.980390 90.892400 -2.217430 -68.070600 -5.348130 -0.000001 -0.000004 -57.627600 69.435700 8.631720 -24.328900 0.000322 -0.000009 21.572000 1.612340 -85.930200 -22.291500 -0.000108 -0.000004 28.250000 5.647030 -27.503300 -2.192480 -6.469440 -0.000000 -169.591000 -17.950700 -3.813760 39.081100 -0.000007 -0.000012 -0.137337 0.381876 19.780600 40.985400 -0.000006 -0.000013 -7.218040 -1.856270 -61.181900 11.754300 -0.000000 0.000003 -0.000144 -0.001406 -16.631100 -2.192510 6.469440 -0.000001 174.911000 20.707600 178.164000 -39.081100 -0.002282 -0.040193 -0.070003 0.213378 18.965000 -40.985400 0.000008 0.000006 -4.211510 1.506430 -62.851000 -11.754300 -0.000006 -0.000006 -0.000960 -0.014843 -17.176800
0.000000 0.000000 0.000000 0.000000 0.000000 -0.000000 -2.314530 92.251600 0.234984 88.536900 -0.210936 2.546000 15.735700 0.000005 -0.000001 65.904700 85.266900 -61.731300 8.984550 -0.406207 -0.000000 1.041990 -4.107540 8.380570 16.377300 -0.000001 -0.000001 2.730080 0.009939 -3.083970 6.456720 -0.000001 -0.000000 0.721772 0.500424 7.781470 12.994200 -0.242716 4.980390 -83.670400 -11.924600 -61.771100 5.348090 -0.000007 -0.000001 -60.429000 -60.320300 -101.337000 24.328600 0.000019 0.000005 -2.174050 -1.740450 -51.363100 22.291600 -0.000001 0.000005 20.335300 5.558410 -9.111730 12.994500 -0.242716 -4.980390 90.861100 -2.144470 -68.116300 -5.348130 -0.000001 -0.000004 -57.261300 69.439600 8.260070 -24.328900 0.000322 -0.000009 21.500600 1.624640 -85.884300 -22.291500 -0.000108 -0.000004 28.232200 5.646870 -27.517500 -2.192480 -6.469440 -0.000000 -169.713000 -17.923700 -3.788440 39.081100 -0.000007 -0.000012 -0.137613 0.380661 19.875600 40.985400 -0.000006 -0.000013 -7.141310 -1.770620 -61.249400 11.754300 -0.000000 0.000003 -0.000149 -0.001447 -16.632600 -2.192510 6.469440 -0.000001 174.725000 20.726700 178.252000 -39.081100 -0.002282 -0.040193 -0.070482 0.213921 19.035200 -40.985400 0.000008 0.000006 -4.295560 1.453720 -62.895900 -11.754300 -0.000006 -0.000006 -0.000954 -0.014751 -17.173100
0.000000 0.000000 0.000000 0.000000 0.000000 -0.000000 -2.241460 92.239000 0.256934 88.558800 -0.180094 2.654890 15.735700 0.000005 -0.000001 65.201000 85.196700 -61.096000 8.984550 -0.406207 -0.000000 1.124580 -4.265220 8.248310 16.377300 -0.000001 -0.000001 2.514640 -0.021902 -3.347670 6.456720 -0.000001 -0.000000 0.685053 0.518338 7.934880 12.994200 -0.242716 4.980390 -83.809600 -11.678700 -61.816100 5.348090 -0.000007 -0.000001 -57.596400 -61.136300 -103.777000 24.328600 0.000019 0.000005 -1.907650 -1.230190 -57.196900 22.291600 -0.000001 0.000005 20.170000 5.589500 -10.734800 12.994500 -0.242716 -4.980390 90.841900 -2.100530 -68.153600 -5.348130 -0.000001 -0.000004 -56.747600 69.527400 7.706730 -24.328900 0.000322 -0.000009 21.442100 1.626030 -85.868500 -22.291500 -0.000108 -0.000004 28.127900 5.646990 -27.507200 -2.192480 -6.469440 -0.000000 -169.730000 -17.890300 -3.704950 39.081100 -0.000007 -0.000012 -0.140090 0.385144 19.988200 40.985400 -0.000006 -0.000013 -7.105060 -1.703380 -61.345900 11.754300 -0.000000 0.000003 -0.000138 -0.001350 -16.629000 -2.192510 6.469440 -0.000001 174.596000 20.741800 178.363000 -39.081100 -0.002282 -0.040193 -0.070840 0.214217 19.096000 -40.985400 0.000008 0.000006 -4.353420 1.464350 -62.926200 -11.754300 -0.000006 -0.000006 -0.001026 -0.015779 -17.214900
0.000000 0.000000 0.000000 0.000000 0.000000 -0.000000 -2.161340 92.233100 0.272470 88.620900 -0.239852 2.697700 15.735700 0.000005 -0.000001 64.649400 85.163000 -60.590400 8.984550 -0.406207 -0.000000 1.148470 -4.374300 8.158600 16.377300 -0.000001 -0.000001 2.374800 0.117563 -3.781200 6.456720 -0.000001 -0.000000 0.608596 0.538263 8.050150 12.994200 -0.242716 4.980390 -83.759000 -11.621200 -61.503000 5.348090 -0.000007 -0.000001 -57.508600 -60.682500 -107.484000 24.328600 0.000019 0.000005 -1.697070 -0.978203 -60.049100 22.291600 -0.000001 0.000005 20.454700 5.616920 -12.410500 12.994500 -0.242716 -4.980390 90.834700 -2.093030 -68.251800 -5.348130 -0.000001 -0.000004 -56.471500 69.553800 7.388020 -24.328900 0.000322 -0.000009 21.516400 1.639520 -85.850100 -22.291500 -0.000108 -0.000004 28.052200 5.647730 -27.439300 -2.192480 -6.469440 -0.000000 -169.824000 -17.942500 -3.667810 39.081100 -0.000007 -0.000012 -0.142254 0.389882 20.045400 40.985400 -0.000006 -0.000013 -7.057560 -1.706970 -61.402400 11.754300 -0.000000 0.000003 -0.000156 -0.001501 -16.634600 -2.192510 6.469440 -0.000001 174.440000 20.791600 178.386000 -39.081100 -0.002282 -0.040193 -0.072639 0.218747 19.150000 -40.985400 0.000008 0.000006 -4.394180 1.589050 -62.924500 -11.754300 -0.000006 -0.000006 -0.001008 -0.015518 -17.204200
